<svg width="60" height="59" viewBox="0 0 60 59" fill="none" xmlns="http://www.w3.org/2000/svg">
<path fill-rule="evenodd" clip-rule="evenodd" d="M50 2C53.4292 2 56.7744 2.3596 60 3.04315V1.00018C56.7689 0.344303 53.4247 0 50 0C22.3858 0 0 22.3858 0 50C0 53.0726 0.277154 56.0805 0.807826 59H2.84237C2.28937 56.0847 2 53.0762 2 50C2 23.4903 23.4903 2 50 2ZM13.0721 59H11.0166C10.3514 56.1072 10 53.0947 10 50C10 27.9086 27.9086 10 50 10C53.453 10 56.8038 10.4375 60 11.2602V13.3295C56.8137 12.4627 53.4609 12 50 12C29.0132 12 12 29.0132 12 50C12 53.1008 12.3714 56.1148 13.0721 59ZM23.4778 59H21.3734C20.4811 56.1589 20 53.1356 20 50C20 33.4315 33.4315 20 50 20C53.5064 20 56.8722 20.6015 60 21.7071V23.8385C56.8944 22.6507 53.5232 22 50 22C34.536 22 22 34.536 22 50C22 53.1484 22.5196 56.1754 23.4778 59ZM34.4081 59H32.1346C30.7691 56.2948 30 53.2372 30 50C30 38.9543 38.9543 30 50 30C53.6429 30 57.0583 30.9739 60 32.6756V35.0311C57.1398 33.1165 53.7003 32 50 32C40.0589 32 32 40.0589 32 50C32 53.2786 32.8765 56.3524 34.4081 59ZM54.3641 59H45.6359C42.2997 57.3793 40 53.9582 40 50C40 44.4772 44.4772 40 50 40C55.5228 40 60 44.4772 60 50C60 53.9582 57.7003 57.3793 54.3641 59ZM50 58C54.4183 58 58 54.4183 58 50C58 45.5817 54.4183 42 50 42C45.5817 42 42 45.5817 42 50C42 54.4183 45.5817 58 50 58ZM50 53C51.6569 53 53 51.6569 53 50C53 48.3431 51.6569 47 50 47C48.3431 47 47 48.3431 47 50C47 51.6569 48.3431 53 50 53Z" fill="black"/>
</svg>
